# MagicaVoxel @ Ephtracy

# group
o 

# material
mtllib 1 gun.vox.mtl
usemtl palette

# normals
vn -1 0 0
vn 1 0 0
vn 0 0 1
vn 0 0 -1
vn 0 -1 0
vn 0 1 0

# texcoords
vt 0.845703 0.5
vt 0.958984 0.5

# verts
v 1.9 2.3 -2.1
v 1.9 2.3 -2.2
v 1.9 2.5 -2.1
v 1.9 2.5 -2.2
v 1.9 2.7 -2.1
v 1.9 2.7 -2.2
v 1.9 2.8 -2.1
v 1.9 2.8 -2.2
v 2 2.2 -2.1
v 2 2.2 -2.2
v 2 2.3 -2.1
v 2 2.3 -2.2
v 2 2.7 -2
v 2 2.7 -2.1
v 2 2.7 -2.2
v 2 2.7 -2.3
v 2 2.8 -2
v 2 2.8 -2.1
v 2 2.8 -2.2
v 2 2.8 -2.3
v 2 2.9 -2.1
v 2 2.9 -2.2
v 2.8 2.7 -2.1
v 2.8 2.7 -2.2
v 2.8 2.8 -2.1
v 2.8 2.8 -2.2
v 2.1 2.2 -2.1
v 2.1 2.2 -2.2
v 2.1 2.3 -2.1
v 2.1 2.3 -2.2
v 2.1 2.5 -2.1
v 2.1 2.5 -2.2
v 2.1 2.6 -2.1
v 2.1 2.6 -2.2
v 2.1 2.7 -2.1
v 2.1 2.7 -2.2
v 2.1 2.8 -2.1
v 2.1 2.8 -2.2
v 2.9 2.6 -2.1
v 2.9 2.6 -2.2
v 2.9 2.7 -2
v 2.9 2.7 -2.1
v 2.9 2.7 -2.2
v 2.9 2.7 -2.3
v 2.9 2.8 -2
v 2.9 2.8 -2.1
v 2.9 2.8 -2.2
v 2.9 2.8 -2.3
v 2.9 2.9 -2.1
v 2.9 2.9 -2.2
v 3 2.7 -2.1
v 3 2.7 -2.2
v 3 2.8 -2.1
v 3 2.8 -2.2
v 2 2.7 -2
v 2 2.8 -2
v 2.6 2.7 -2
v 2.6 2.8 -2
v 2.8 2.7 -2
v 2.8 2.8 -2
v 2.9 2.7 -2
v 2.9 2.8 -2
v 1.9 2.3 -2.1
v 1.9 2.5 -2.1
v 1.9 2.7 -2.1
v 1.9 2.8 -2.1
v 2 2.2 -2.1
v 2 2.3 -2.1
v 2 2.7 -2.1
v 2 2.8 -2.1
v 2 2.9 -2.1
v 2.1 2.2 -2.1
v 2.1 2.3 -2.1
v 2.1 2.5 -2.1
v 2.1 2.6 -2.1
v 2.1 2.7 -2.1
v 2.2 2.6 -2.1
v 2.2 2.7 -2.1
v 2.2 2.8 -2.1
v 2.2 2.9 -2.1
v 2.4 2.6 -2.1
v 2.4 2.7 -2.1
v 2.4 2.8 -2.1
v 2.4 2.9 -2.1
v 2.6 2.6 -2.1
v 2.6 2.7 -2.1
v 2.6 2.8 -2.1
v 2.6 2.9 -2.1
v 2.8 2.6 -2.1
v 2.8 2.7 -2.1
v 2.8 2.8 -2.1
v 2.8 2.9 -2.1
v 2.9 2.6 -2.1
v 2.9 2.7 -2.1
v 2.9 2.8 -2.1
v 2.9 2.9 -2.1
v 3 2.7 -2.1
v 3 2.8 -2.1
v 2.1 2.7 -2.2
v 2.1 2.8 -2.2
v 2.2 2.7 -2.2
v 2.2 2.8 -2.2
v 2.4 2.7 -2.2
v 2.4 2.8 -2.2
v 2.6 2.7 -2.2
v 2.6 2.8 -2.2
v 2.8 2.7 -2.2
v 2.8 2.8 -2.2
v 2.1 2.7 -2.1
v 2.1 2.8 -2.1
v 2.2 2.7 -2.1
v 2.2 2.8 -2.1
v 2.4 2.7 -2.1
v 2.4 2.8 -2.1
v 2.6 2.7 -2.1
v 2.6 2.8 -2.1
v 2.8 2.7 -2.1
v 2.8 2.8 -2.1
v 1.9 2.3 -2.2
v 1.9 2.5 -2.2
v 1.9 2.7 -2.2
v 1.9 2.8 -2.2
v 2 2.2 -2.2
v 2 2.3 -2.2
v 2 2.7 -2.2
v 2 2.8 -2.2
v 2 2.9 -2.2
v 2.1 2.2 -2.2
v 2.1 2.3 -2.2
v 2.1 2.5 -2.2
v 2.1 2.6 -2.2
v 2.1 2.7 -2.2
v 2.2 2.6 -2.2
v 2.2 2.7 -2.2
v 2.2 2.8 -2.2
v 2.2 2.9 -2.2
v 2.4 2.6 -2.2
v 2.4 2.7 -2.2
v 2.4 2.8 -2.2
v 2.4 2.9 -2.2
v 2.6 2.6 -2.2
v 2.6 2.7 -2.2
v 2.6 2.8 -2.2
v 2.6 2.9 -2.2
v 2.8 2.6 -2.2
v 2.8 2.7 -2.2
v 2.8 2.8 -2.2
v 2.8 2.9 -2.2
v 2.9 2.6 -2.2
v 2.9 2.7 -2.2
v 2.9 2.8 -2.2
v 2.9 2.9 -2.2
v 3 2.7 -2.2
v 3 2.8 -2.2
v 2 2.7 -2.3
v 2 2.8 -2.3
v 2.2 2.7 -2.3
v 2.2 2.8 -2.3
v 2.4 2.7 -2.3
v 2.4 2.8 -2.3
v 2.6 2.7 -2.3
v 2.6 2.8 -2.3
v 2.8 2.7 -2.3
v 2.8 2.8 -2.3
v 2.9 2.7 -2.3
v 2.9 2.8 -2.3
v 2 2.2 -2.1
v 2.1 2.2 -2.1
v 2 2.2 -2.2
v 2.1 2.2 -2.2
v 1.9 2.3 -2.1
v 2 2.3 -2.1
v 1.9 2.3 -2.2
v 2 2.3 -2.2
v 2.1 2.6 -2.1
v 2.2 2.6 -2.1
v 2.4 2.6 -2.1
v 2.6 2.6 -2.1
v 2.8 2.6 -2.1
v 2.9 2.6 -2.1
v 2.1 2.6 -2.2
v 2.2 2.6 -2.2
v 2.4 2.6 -2.2
v 2.6 2.6 -2.2
v 2.8 2.6 -2.2
v 2.9 2.6 -2.2
v 2 2.7 -2
v 2.6 2.7 -2
v 2.8 2.7 -2
v 2.9 2.7 -2
v 2 2.7 -2.1
v 2.1 2.7 -2.1
v 2.2 2.7 -2.1
v 2.4 2.7 -2.1
v 2.6 2.7 -2.1
v 2.8 2.7 -2.1
v 2.9 2.7 -2.1
v 3 2.7 -2.1
v 2 2.7 -2.2
v 2.1 2.7 -2.2
v 2.2 2.7 -2.2
v 2.4 2.7 -2.2
v 2.6 2.7 -2.2
v 2.8 2.7 -2.2
v 2.9 2.7 -2.2
v 3 2.7 -2.2
v 2 2.7 -2.3
v 2.2 2.7 -2.3
v 2.4 2.7 -2.3
v 2.6 2.7 -2.3
v 2.8 2.7 -2.3
v 2.9 2.7 -2.3
v 2.1 2.8 -2.1
v 2.2 2.8 -2.1
v 2.4 2.8 -2.1
v 2.6 2.8 -2.1
v 2.8 2.8 -2.1
v 2.1 2.8 -2.2
v 2.2 2.8 -2.2
v 2.4 2.8 -2.2
v 2.6 2.8 -2.2
v 2.8 2.8 -2.2
v 2.1 2.7 -2.1
v 2.2 2.7 -2.1
v 2.4 2.7 -2.1
v 2.6 2.7 -2.1
v 2.8 2.7 -2.1
v 2.1 2.7 -2.2
v 2.2 2.7 -2.2
v 2.4 2.7 -2.2
v 2.6 2.7 -2.2
v 2.8 2.7 -2.2
v 2 2.8 -2
v 2.6 2.8 -2
v 2.8 2.8 -2
v 2.9 2.8 -2
v 1.9 2.8 -2.1
v 2 2.8 -2.1
v 2.2 2.8 -2.1
v 2.4 2.8 -2.1
v 2.6 2.8 -2.1
v 2.8 2.8 -2.1
v 2.9 2.8 -2.1
v 3 2.8 -2.1
v 1.9 2.8 -2.2
v 2 2.8 -2.2
v 2.2 2.8 -2.2
v 2.4 2.8 -2.2
v 2.6 2.8 -2.2
v 2.8 2.8 -2.2
v 2.9 2.8 -2.2
v 3 2.8 -2.2
v 2 2.8 -2.3
v 2.2 2.8 -2.3
v 2.4 2.8 -2.3
v 2.6 2.8 -2.3
v 2.8 2.8 -2.3
v 2.9 2.8 -2.3
v 2 2.9 -2.1
v 2.2 2.9 -2.1
v 2.4 2.9 -2.1
v 2.6 2.9 -2.1
v 2.8 2.9 -2.1
v 2.9 2.9 -2.1
v 2 2.9 -2.2
v 2.2 2.9 -2.2
v 2.4 2.9 -2.2
v 2.6 2.9 -2.2
v 2.8 2.9 -2.2
v 2.9 2.9 -2.2

# faces
f 3/2/1 2/2/1 1/2/1
f 4/2/1 2/2/1 3/2/1
f 5/1/1 4/1/1 3/1/1
f 6/1/1 4/1/1 5/1/1
f 7/2/1 6/2/1 5/2/1
f 8/2/1 6/2/1 7/2/1
f 11/1/1 10/1/1 9/1/1
f 12/1/1 10/1/1 11/1/1
f 17/2/1 14/2/1 13/2/1
f 18/2/1 14/2/1 17/2/1
f 19/2/1 16/2/1 15/2/1
f 20/2/1 16/2/1 19/2/1
f 21/2/1 19/2/1 18/2/1
f 22/2/1 19/2/1 21/2/1
f 25/1/1 24/1/1 23/1/1
f 26/1/1 24/1/1 25/1/1
f 27/1/2 28/1/2 29/1/2
f 29/1/2 28/1/2 30/1/2
f 29/2/2 30/2/2 31/2/2
f 31/2/2 30/2/2 32/2/2
f 31/1/2 32/1/2 33/1/2
f 33/1/2 32/1/2 34/1/2
f 35/2/2 36/2/2 37/2/2
f 37/2/2 36/2/2 38/2/2
f 39/2/2 40/2/2 42/2/2
f 42/2/2 40/2/2 43/2/2
f 41/2/2 42/2/2 45/2/2
f 45/2/2 42/2/2 46/2/2
f 43/2/2 44/2/2 47/2/2
f 47/2/2 44/2/2 48/2/2
f 46/2/2 47/2/2 49/2/2
f 49/2/2 47/2/2 50/2/2
f 51/2/2 52/2/2 53/2/2
f 53/2/2 52/2/2 54/2/2
f 57/2/3 56/2/3 55/2/3
f 58/2/3 56/2/3 57/2/3
f 59/1/3 58/1/3 57/1/3
f 60/1/3 58/1/3 59/1/3
f 61/2/3 60/2/3 59/2/3
f 62/2/3 60/2/3 61/2/3
f 68/2/3 64/2/3 63/2/3
f 69/2/3 66/2/3 65/2/3
f 69/1/3 65/1/3 64/1/3
f 70/2/3 66/2/3 69/2/3
f 72/1/3 68/1/3 67/1/3
f 73/2/3 64/2/3 68/2/3
f 73/1/3 68/1/3 72/1/3
f 74/1/3 69/1/3 64/1/3
f 74/2/3 64/2/3 73/2/3
f 75/1/3 69/1/3 74/1/3
f 76/1/3 69/1/3 75/1/3
f 77/2/3 76/2/3 75/2/3
f 78/2/3 76/2/3 77/2/3
f 79/2/3 71/2/3 70/2/3
f 80/2/3 71/2/3 79/2/3
f 81/1/3 78/1/3 77/1/3
f 82/1/3 78/1/3 81/1/3
f 83/1/3 80/1/3 79/1/3
f 84/1/3 80/1/3 83/1/3
f 85/2/3 82/2/3 81/2/3
f 86/2/3 82/2/3 85/2/3
f 87/2/3 84/2/3 83/2/3
f 88/2/3 84/2/3 87/2/3
f 89/1/3 86/1/3 85/1/3
f 90/1/3 86/1/3 89/1/3
f 91/1/3 88/1/3 87/1/3
f 92/1/3 88/1/3 91/1/3
f 93/2/3 90/2/3 89/2/3
f 94/2/3 90/2/3 93/2/3
f 95/2/3 92/2/3 91/2/3
f 96/2/3 92/2/3 95/2/3
f 97/2/3 95/2/3 94/2/3
f 98/2/3 95/2/3 97/2/3
f 101/2/3 100/2/3 99/2/3
f 102/2/3 100/2/3 101/2/3
f 103/1/3 102/1/3 101/1/3
f 104/1/3 102/1/3 103/1/3
f 105/2/3 104/2/3 103/2/3
f 106/2/3 104/2/3 105/2/3
f 107/1/3 106/1/3 105/1/3
f 108/1/3 106/1/3 107/1/3
f 109/2/4 110/2/4 111/2/4
f 111/2/4 110/2/4 112/2/4
f 111/2/4 112/2/4 113/2/4
f 113/2/4 112/2/4 114/2/4
f 113/2/4 114/2/4 115/2/4
f 115/2/4 114/2/4 116/2/4
f 115/1/4 116/1/4 117/1/4
f 117/1/4 116/1/4 118/1/4
f 119/2/4 120/2/4 124/2/4
f 121/2/4 122/2/4 125/2/4
f 120/1/4 121/1/4 125/1/4
f 125/2/4 122/2/4 126/2/4
f 123/1/4 124/1/4 128/1/4
f 124/2/4 120/2/4 129/2/4
f 128/1/4 124/1/4 129/1/4
f 120/1/4 125/1/4 130/1/4
f 129/2/4 120/2/4 130/2/4
f 130/1/4 125/1/4 131/1/4
f 131/1/4 125/1/4 132/1/4
f 131/2/4 132/2/4 133/2/4
f 133/2/4 132/2/4 134/2/4
f 126/2/4 127/2/4 135/2/4
f 135/2/4 127/2/4 136/2/4
f 133/1/4 134/1/4 137/1/4
f 137/1/4 134/1/4 138/1/4
f 135/1/4 136/1/4 139/1/4
f 139/1/4 136/1/4 140/1/4
f 137/2/4 138/2/4 141/2/4
f 141/2/4 138/2/4 142/2/4
f 139/2/4 140/2/4 143/2/4
f 143/2/4 140/2/4 144/2/4
f 141/1/4 142/1/4 145/1/4
f 145/1/4 142/1/4 146/1/4
f 143/1/4 144/1/4 147/1/4
f 147/1/4 144/1/4 148/1/4
f 145/2/4 146/2/4 149/2/4
f 149/2/4 146/2/4 150/2/4
f 147/2/4 148/2/4 151/2/4
f 151/2/4 148/2/4 152/2/4
f 150/2/4 151/2/4 153/2/4
f 153/2/4 151/2/4 154/2/4
f 155/2/4 156/2/4 157/2/4
f 157/2/4 156/2/4 158/2/4
f 157/1/4 158/1/4 159/1/4
f 159/1/4 158/1/4 160/1/4
f 159/2/4 160/2/4 161/2/4
f 161/2/4 160/2/4 162/2/4
f 161/1/4 162/1/4 163/1/4
f 163/1/4 162/1/4 164/1/4
f 163/2/4 164/2/4 165/2/4
f 165/2/4 164/2/4 166/2/4
f 169/1/5 168/1/5 167/1/5
f 170/1/5 168/1/5 169/1/5
f 173/2/5 172/2/5 171/2/5
f 174/2/5 172/2/5 173/2/5
f 181/2/5 176/2/5 175/2/5
f 182/1/5 177/1/5 176/1/5
f 182/2/5 176/2/5 181/2/5
f 183/2/5 178/2/5 177/2/5
f 183/1/5 177/1/5 182/1/5
f 184/1/5 179/1/5 178/1/5
f 184/2/5 178/2/5 183/2/5
f 185/2/5 180/2/5 179/2/5
f 185/1/5 179/1/5 184/1/5
f 186/2/5 180/2/5 185/2/5
f 191/2/5 188/2/5 187/2/5
f 192/2/5 188/2/5 191/2/5
f 193/2/5 188/2/5 192/2/5
f 194/2/5 188/2/5 193/2/5
f 195/1/5 189/1/5 188/1/5
f 195/2/5 188/2/5 194/2/5
f 196/2/5 190/2/5 189/2/5
f 196/1/5 189/1/5 195/1/5
f 197/2/5 190/2/5 196/2/5
f 205/2/5 198/2/5 197/2/5
f 206/2/5 198/2/5 205/2/5
f 207/2/5 200/2/5 199/2/5
f 207/2/5 201/2/5 200/2/5
f 208/1/5 202/1/5 201/1/5
f 208/2/5 201/2/5 207/2/5
f 209/2/5 203/2/5 202/2/5
f 209/1/5 202/1/5 208/1/5
f 210/1/5 204/1/5 203/1/5
f 210/2/5 203/2/5 209/2/5
f 211/2/5 205/2/5 204/2/5
f 211/1/5 204/1/5 210/1/5
f 212/2/5 205/2/5 211/2/5
f 218/2/5 214/2/5 213/2/5
f 219/1/5 215/1/5 214/1/5
f 219/2/5 214/2/5 218/2/5
f 220/2/5 216/2/5 215/2/5
f 220/1/5 215/1/5 219/1/5
f 221/1/5 217/1/5 216/1/5
f 221/2/5 216/2/5 220/2/5
f 222/1/5 217/1/5 221/1/5
f 223/2/6 224/2/6 228/2/6
f 224/1/6 225/1/6 229/1/6
f 228/2/6 224/2/6 229/2/6
f 225/2/6 226/2/6 230/2/6
f 229/1/6 225/1/6 230/1/6
f 226/1/6 227/1/6 231/1/6
f 230/2/6 226/2/6 231/2/6
f 231/1/6 227/1/6 232/1/6
f 233/2/6 234/2/6 238/2/6
f 238/2/6 234/2/6 239/2/6
f 239/2/6 234/2/6 240/2/6
f 234/1/6 235/1/6 241/1/6
f 240/2/6 234/2/6 241/2/6
f 235/2/6 236/2/6 242/2/6
f 241/1/6 235/1/6 242/1/6
f 242/2/6 236/2/6 243/2/6
f 237/2/6 238/2/6 245/2/6
f 245/2/6 238/2/6 246/2/6
f 243/2/6 244/2/6 251/2/6
f 251/2/6 244/2/6 252/2/6
f 246/2/6 247/2/6 253/2/6
f 247/1/6 248/1/6 254/1/6
f 253/2/6 247/2/6 254/2/6
f 248/2/6 249/2/6 255/2/6
f 254/1/6 248/1/6 255/1/6
f 249/1/6 250/1/6 256/1/6
f 255/2/6 249/2/6 256/2/6
f 250/2/6 251/2/6 257/2/6
f 256/1/6 250/1/6 257/1/6
f 257/2/6 251/2/6 258/2/6
f 259/2/6 260/2/6 265/2/6
f 260/1/6 261/1/6 266/1/6
f 265/2/6 260/2/6 266/2/6
f 261/2/6 262/2/6 267/2/6
f 266/1/6 261/1/6 267/1/6
f 262/1/6 263/1/6 268/1/6
f 267/2/6 262/2/6 268/2/6
f 263/2/6 264/2/6 269/2/6
f 268/1/6 263/1/6 269/1/6
f 269/2/6 264/2/6 270/2/6
